<?xml version="1.0" encoding="UTF-8"?>
<svg width="66px" height="48px" viewBox="0 0 66 48" version="1.1" xmlns="http://www.w3.org/2000/svg" xmlns:xlink="http://www.w3.org/1999/xlink">
    <title>parking-scout-logo</title>
    <defs>
        <filter color-interpolation-filters="auto" id="filter-1">
            <feColorMatrix in="SourceGraphic" type="matrix" values="0 0 0 0 0.054902 0 0 0 0 0.470588 0 0 0 0 0.768627 0 0 0 1.000000 0"></feColorMatrix>
        </filter>
    </defs>
    <g id="car-parking-app" stroke="none" stroke-width="1" fill="none" fill-rule="evenodd">
        <g id="parking-scout-logo" transform="translate(-147.000000, -32.000000)" filter="url(#filter-1)">
            <g transform="translate(147.000000, 32.000000)" id="parked-car" fill-rule="nonzero">
                <path d="M46.8039762,19.5773424 C46.5915831,19.5773424 46.3736198,19.6079575 46.1556566,19.6679727 L43.6921874,20.3487927 L41.1345097,14.0970084 C40.4096608,12.3259529 38.2675664,10.8848595 36.3594192,10.8848595 L12.4197884,10.8848595 C10.511399,10.8848595 8.36954679,12.3259529 7.64494006,14.0970084 L5.09041072,20.3400456 L2.65745643,19.6677297 C2.43973536,19.6077145 2.22177211,19.5770995 2.00937902,19.5770995 C0.844970883,19.5770995 0,20.469552 0,21.6987699 L0,23.1556568 C0,24.5906758 1.16392378,25.7584207 2.59424709,25.7584207 L2.87299788,25.7584207 L2.4600786,26.7675019 C1.78681432,28.4124525 1.23875783,31.1984207 1.23875783,32.9774943 L1.23875783,45.3972361 C1.23875783,46.8322551 2.40268161,48 3.83300492,48 L7.22112262,48 C8.65144593,48 9.81536971,46.8322551 9.81536971,45.3972361 L9.81536971,42.2958846 L38.9635957,42.2958846 L38.9635957,45.3972361 C38.9635957,46.8322551 40.1275195,48 41.5578428,48 L44.9454762,48 C46.3757995,48 47.5397233,46.8322551 47.5397233,45.3972361 L47.5397233,32.9777373 C47.5397233,31.1989066 46.9916668,28.4129385 46.3184025,26.7677449 L45.9054832,25.7586636 L46.2188659,25.7586636 C47.6491892,25.7586636 48.8131131,24.5909188 48.8131131,23.1558998 L48.8131131,21.6990129 M6.95012164,24.3450266 L10.819696,14.8888686 C11.2532006,13.8294913 12.5416057,12.9625513 13.6830066,12.9625513 L35.0962011,12.9625513 C36.237602,12.9625513 37.526007,13.8292483 37.9595117,14.8888686 L41.829086,24.3450266 C42.2623485,25.4044039 41.6832928,26.271344 40.5418919,26.271344 L8.23755793,26.271344 C7.09591484,26.271101 6.51685913,25.4044039 6.95012164,24.3450266 Z M15.5880054,36.3060289 C15.5880054,36.8787244 15.1208375,37.34694 14.5505003,37.34694 L7.19981066,37.34694 C6.62898911,37.34694 6.16206339,36.8784814 6.16206339,36.3060289 L6.16206339,32.7668337 C6.16206339,32.1943812 6.62898911,31.7259226 7.19981066,31.7259226 L14.5505003,31.7259226 C15.1208375,31.7259226 15.5880054,32.1943812 15.5880054,32.7668337 L15.5880054,36.3060289 L15.5880054,36.3060289 Z M42.547396,36.3060289 C42.547396,36.8787244 42.0802281,37.34694 41.5098909,37.34694 L34.1592012,37.34694 C33.5888641,37.34694 33.1216962,36.8784814 33.1216962,36.3060289 L33.1216962,32.7668337 C33.1216962,32.1943812 33.5888641,31.7259226 34.1592012,31.7259226 L41.5098909,31.7259226 C42.0802281,31.7259226 42.547396,32.1943812 42.547396,32.7668337 L42.547396,36.3060289 Z" id="Shape" fill="#FF4949"></path>
                <g id="Group" transform="translate(47.223434, 0.000000)" fill="#FFFFFF">
                    <path d="M15.5318193,0 L3.24474631,0 C1.45551018,0 0,1.46053151 0,3.25539863 L0,15.5830524 C0,17.3781625 1.45575236,18.838694 3.24474631,18.838694 L8.17725476,18.838694 L8.17725476,46.5069096 C8.17725476,47.1780106 8.71925672,47.721792 9.38816173,47.721792 C10.0570667,47.721792 10.5990687,47.1780106 10.5990687,46.5069096 L10.5990687,18.838937 L15.5318193,18.838937 C17.3210555,18.838937 18.7765656,17.3784055 18.7765656,15.5832954 L18.7765656,3.25564161 C18.7765656,1.46053151 17.3210555,0 15.5318193,0 Z M12.7489129,10.2212908 C12.0422276,10.85959 11.001332,11.1832346 9.65528781,11.1832346 L7.87598111,11.1832346 C7.66237712,11.1832346 7.48849088,11.3579347 7.48849088,11.5722399 L7.48849088,14.5824753 C7.48849088,14.9095216 7.22330225,15.1753379 6.8973261,15.1753379 L5.54982882,15.1753379 C5.22361048,15.1753379 4.95866404,14.9092787 4.95866404,14.5824753 L4.95866404,4.25719058 C4.95866404,3.92990129 5.22385267,3.66384207 5.54982882,3.66384207 L8.94424324,3.66384207 C11.1928975,3.66384207 12.0322982,4.00376614 12.7220308,4.59104024 C13.4495437,5.21038724 13.8181438,6.15896735 13.8181438,7.41102506 C13.8179016,8.63441154 13.4585044,9.57958998 12.7489129,10.2212908 Z" id="Shape"></path>
                    <path d="M10.8228443,6.15678056 C10.4944463,5.90797267 9.91345318,5.78162491 9.09633315,5.78162491 L7.87598111,5.78162491 C7.66237712,5.78162491 7.48849088,5.956082 7.48849088,6.17014427 L7.48849088,8.6441306 C7.48849088,8.85819286 7.66237712,9.03264996 7.87598111,9.03264996 L8.60712674,9.03264996 C8.8757059,9.03264996 9.30969496,9.01272589 9.57439923,8.98818527 C9.83135368,8.96461655 10.556687,8.85916477 10.8228443,8.65749431 C11.1422816,8.4150038 11.3043009,7.99562642 11.3043009,7.41126803 C11.3043009,6.82132118 11.1422816,6.39927107 10.8228443,6.15678056 Z" id="Path"></path>
                </g>
            </g>
        </g>
    </g>
</svg>